<svg width="512" height="415" viewBox="0 0 512 415" fill="none" xmlns="http://www.w3.org/2000/svg">
<path d="M261.848 199.587C285.9 205.018 304.908 217.043 318.873 235.664C333.226 253.896 340.403 274.844 340.403 298.507C340.403 333.42 328.377 360.769 304.326 380.553C280.275 400.337 246.525 410.229 203.078 410.229H0V0H196.677C238.573 0 271.353 9.31017 295.016 27.9305C319.067 46.5508 331.093 72.7357 331.093 106.485C331.093 130.536 324.692 150.708 311.891 167.001C299.477 182.906 282.796 193.768 261.848 199.587ZM114.05 162.928H171.656C200.363 162.928 214.716 151.096 214.716 127.433C214.716 102.994 200.363 90.7741 171.656 90.7741H114.05V162.928ZM180.384 318.291C209.091 318.291 223.444 306.266 223.444 282.214C223.444 269.801 219.565 260.297 211.806 253.702C204.436 247.107 193.768 243.81 179.803 243.81H114.05V318.291H180.384Z" fill="#2B2743"/>
<path d="M445.665 414.884C425.493 414.884 409.2 409.453 396.787 398.592C384.761 387.342 378.748 373.183 378.748 356.114C378.748 339.045 384.761 324.886 396.787 313.636C409.2 302.386 425.493 296.762 445.665 296.762C465.449 296.762 481.354 302.386 493.38 313.636C505.793 324.886 512 339.045 512 356.114C512 372.795 505.793 386.76 493.38 398.01C481.354 409.259 465.449 414.884 445.665 414.884Z" fill="#7F5CE2"/>
</svg>
