<svg width="333" height="105" viewBox="0 0 333 105" fill="none" xmlns="http://www.w3.org/2000/svg">
<path d="M188.309 83.8445C188.309 79.7431 189.01 76.1601 190.413 73.0959C191.862 70.0315 193.83 67.6743 196.32 66.0243C198.809 64.3743 201.57 63.5493 204.603 63.5493C207.047 63.5493 209.22 64.0914 211.121 65.1757C213.067 66.2129 214.583 67.6508 215.669 69.4894V51.3862H229.045V103.715H215.669V98.1993C214.629 100.038 213.158 101.5 211.257 102.584C209.355 103.669 207.115 104.211 204.536 104.211C201.503 104.211 198.742 103.385 196.252 101.735C193.808 100.085 191.862 97.7287 190.413 94.664C189.01 91.5525 188.309 87.946 188.309 83.8445ZM215.738 83.8445C215.738 81.2988 215.058 79.2952 213.701 77.8338C212.388 76.3723 210.759 75.6416 208.813 75.6416C206.82 75.6416 205.169 76.3723 203.856 77.8338C202.543 79.2481 201.888 81.2516 201.888 83.8445C201.888 86.3903 202.543 88.4174 203.856 89.9261C205.169 91.3875 206.82 92.1182 208.813 92.1182C210.759 92.1182 212.388 91.3875 213.701 89.9261C215.058 88.4646 215.738 86.4374 215.738 83.8445ZM273.02 83.4202C273.02 84.5046 272.952 85.5888 272.816 86.6732H247.627C247.763 88.8417 248.329 90.4682 249.325 91.5526C250.366 92.5897 251.678 93.1083 253.263 93.1083C255.48 93.1083 257.065 92.0711 258.015 89.9967H272.205C271.616 92.7311 270.463 95.1826 268.742 97.3507C267.068 99.4721 264.94 101.146 262.361 102.372C259.78 103.597 256.929 104.211 253.806 104.211C250.049 104.211 246.699 103.385 243.757 101.735C240.86 100.085 238.574 97.7287 236.9 94.664C235.27 91.5996 234.455 87.9931 234.455 83.8445C234.455 79.6959 235.27 76.113 236.9 73.0959C238.53 70.0315 240.793 67.6743 243.69 66.0243C246.632 64.3743 250.004 63.5493 253.806 63.5493C257.562 63.5493 260.89 64.3507 263.786 65.9536C266.682 67.5565 268.946 69.8665 270.575 72.8837C272.205 75.8538 273.02 79.3659 273.02 83.4202ZM259.441 79.9552C259.441 78.2581 258.898 76.938 257.811 75.9951C256.725 75.0052 255.367 74.5101 253.738 74.5101C252.108 74.5101 250.773 74.9816 249.732 75.9244C248.691 76.8202 248.012 78.1637 247.696 79.9552H259.441ZM276.292 83.8445C276.292 79.7431 276.993 76.1601 278.397 73.0959C279.845 70.0315 281.792 67.6743 284.236 66.0243C286.725 64.3743 289.486 63.5493 292.518 63.5493C295.144 63.5493 297.407 64.0914 299.308 65.1757C301.209 66.2601 302.68 67.7214 303.721 69.5601V64.0443H317.029V103.715H303.721V98.1993C302.68 100.038 301.186 101.5 299.24 102.584C297.339 103.669 295.099 104.211 292.518 104.211C289.486 104.211 286.725 103.385 284.236 101.735C281.792 100.085 279.845 97.7287 278.397 94.664C276.993 91.5525 276.292 87.946 276.292 83.8445ZM303.721 83.8445C303.721 81.2988 303.042 79.2952 301.684 77.8338C300.371 76.3723 298.742 75.6416 296.796 75.6416C294.804 75.6416 293.153 76.3723 291.84 77.8338C290.527 79.2481 289.871 81.2516 289.871 83.8445C289.871 86.3903 290.527 88.4174 291.84 89.9261C293.153 91.3875 294.804 92.1182 296.796 92.1182C298.742 92.1182 300.371 91.3875 301.684 89.9261C303.042 88.4646 303.721 86.4374 303.721 83.8445Z" fill="white"/>
<path d="M327.643 104.093C326.072 104.093 324.806 103.652 323.841 102.773C322.904 101.862 322.438 100.714 322.438 99.3312C322.438 97.9484 322.904 96.8009 323.841 95.8896C324.806 94.9781 326.072 94.5225 327.643 94.5225C329.182 94.5225 330.418 94.9781 331.355 95.8896C332.319 96.8009 332.803 97.9484 332.803 99.3312C332.803 100.682 332.319 101.814 331.355 102.726C330.418 103.637 329.182 104.093 327.643 104.093Z" fill="#7F5CE2"/>
<path d="M168.591 13.1611C162.712 13.1611 157.943 18.1277 157.943 24.2558C157.943 26.2728 158.487 28.1486 159.363 29.7939C161.977 34.7033 162.672 37.4588 163.099 40.1257C163.457 42.3613 163.951 42.8807 165.572 42.8807C166.263 42.8807 167.39 42.8807 168.591 42.8807C169.797 42.8807 170.925 42.8807 171.612 42.8807C173.236 42.8807 173.731 42.3613 174.089 40.1257C174.517 37.4574 175.21 34.7012 177.824 29.7939C178.704 28.1493 179.244 26.2736 179.244 24.2558C179.246 18.1271 174.477 13.1611 168.591 13.1611Z" fill="#7F5CE2"/>
<path d="M180.827 5.35056C181.797 3.57975 179.176 1.98979 178.196 3.7573C177.683 4.68066 173.975 11.3745 173.975 11.3745L176.612 12.9598C176.612 12.9598 179.906 7.0085 180.824 5.35783C180.826 5.35716 180.826 5.35584 180.826 5.35584L180.827 5.35056Z" fill="#7F5CE2"/>
<path d="M186.762 11.5499L186.76 11.5518C186.755 11.5525 186.755 11.5525 186.755 11.5525C185.417 12.3583 179.68 15.8089 179.68 15.8089L181.198 18.5545C181.198 18.5545 186.95 15.0967 188.288 14.2921C189.99 13.2705 188.462 10.5374 186.762 11.5499Z" fill="#7F5CE2"/>
<path d="M164.348 104.894C160.882 104.894 158.142 103.826 156.126 101.69C153.863 99.3334 152.731 95.8891 152.731 91.3591C152.731 89.2228 153.015 86.7548 153.58 83.9557L160.953 47.6592H176.6L168.803 86.1104C168.52 87.0683 168.379 88.2836 168.379 89.7569C168.379 91.3037 168.715 92.3901 169.387 93.0161C170.094 93.6423 171.226 93.9553 172.781 93.9553C173.842 93.9553 174.868 93.716 175.858 93.2371C176.883 92.7215 177.82 92.0219 178.669 91.138C180.402 89.3334 181.71 86.9391 182.594 83.9557H187.155C185.211 89.6645 182.771 94.2134 179.836 97.6015C177.36 100.364 174.567 102.353 171.455 103.569C169.192 104.452 166.823 104.894 164.348 104.894Z" fill="#7F5CE2"/>
<path d="M170.172 1.53353C170.172 2.01468 170.172 9.98955 170.172 9.98955H167.127C167.127 9.98955 167.127 2.01401 167.127 1.53353C167.127 -0.511178 170.172 -0.511178 170.172 1.53353Z" fill="#7F5CE2"/>
<path d="M156.412 5.35056C155.441 3.57975 158.063 1.98979 159.044 3.7573C159.555 4.68066 163.264 11.3745 163.264 11.3745L160.63 12.9598C160.63 12.9598 157.329 7.0085 156.414 5.35783C156.414 5.35716 156.414 5.35584 156.414 5.35584L156.412 5.35056Z" fill="#7F5CE2"/>
<path d="M150.477 11.5499V11.5518C150.482 11.5525 150.482 11.5525 150.482 11.5525C151.822 12.3583 157.558 15.8089 157.558 15.8089L156.036 18.5545C156.036 18.5545 150.284 15.0967 148.947 14.2921C147.247 13.2705 148.773 10.5374 150.477 11.5499Z" fill="#7F5CE2"/>
<path d="M29.9967 79.0106C32.752 79.6586 34.9295 81.0935 36.5293 83.3152C38.1736 85.4907 38.9957 87.9902 38.9957 90.8136C38.9957 94.9794 37.6181 98.2426 34.8628 100.603C32.1076 102.964 28.2413 104.144 23.2641 104.144H0V55.1963H22.5309C27.3303 55.1963 31.0855 56.3072 33.7963 58.5289C36.5515 60.7506 37.9292 63.875 37.9292 67.9019C37.9292 70.7716 37.1959 73.1785 35.7294 75.1226C34.3073 77.0203 32.3964 78.3163 29.9967 79.0106ZM13.0652 74.6366H19.6645C22.953 74.6366 24.5973 73.2248 24.5973 70.4014C24.5973 67.4853 22.953 66.0273 19.6645 66.0273H13.0652V74.6366ZM20.6644 93.1742C23.9529 93.1742 25.5972 91.7394 25.5972 88.8696C25.5972 87.3884 25.1528 86.2544 24.264 85.4676C23.4196 84.6807 22.1976 84.2873 20.5977 84.2873H13.0652V93.1742H20.6644ZM80.4511 84.2178C80.4511 85.2824 80.3844 86.347 80.2511 87.4116H55.5205C55.6538 89.5408 56.2093 91.1376 57.1869 92.2022C58.2091 93.2205 59.4978 93.7297 61.0532 93.7297C63.2307 93.7297 64.7861 92.7114 65.7193 90.6748H79.6511C79.0734 93.3594 77.9402 95.7663 76.2515 97.8954C74.6073 99.9783 72.5186 101.621 69.9855 102.825C67.4525 104.028 64.6528 104.63 61.5865 104.63C57.898 104.63 54.6095 103.82 51.7209 102.2C48.8768 100.58 46.6326 98.2657 44.9883 95.2571C43.3885 92.2485 42.5886 88.7076 42.5886 84.6344C42.5886 80.5612 43.3885 77.0434 44.9883 74.0811C46.5881 71.0725 48.8101 68.7582 51.6542 67.1382C54.5428 65.5181 57.8535 64.7081 61.5865 64.7081C65.2749 64.7081 68.5413 65.495 71.3854 67.0687C74.2295 68.6425 76.4515 70.9105 78.0513 73.8728C79.6512 76.7889 80.4511 80.2372 80.4511 84.2178ZM67.1192 80.8158C67.1192 79.1495 66.5859 77.8535 65.5194 76.9277C64.4528 75.9557 63.1196 75.4697 61.5198 75.4697C59.92 75.4697 58.609 75.9326 57.5869 76.8583C56.5648 77.7377 55.8982 79.0569 55.5871 80.8158H67.1192ZM101.73 104.63C98.3522 104.63 95.3303 104.052 92.6639 102.894C90.042 101.691 87.9532 100.071 86.3978 98.0343C84.8869 95.9514 84.0425 93.614 83.8648 91.0219H96.5301C96.7079 92.2717 97.2634 93.2437 98.1966 93.938C99.1298 94.6323 100.285 94.9794 101.663 94.9794C102.729 94.9794 103.574 94.748 104.196 94.2851C104.818 93.8222 105.129 93.2205 105.129 92.4799C105.129 91.5079 104.618 90.7905 103.596 90.3276C102.574 89.8648 100.885 89.3556 98.5299 88.8002C95.8635 88.2447 93.6416 87.6199 91.864 86.9256C90.0864 86.2313 88.5309 85.0973 87.1977 83.5235C85.909 81.9498 85.2646 79.8206 85.2646 77.136C85.2646 74.8217 85.8645 72.7388 87.0644 70.8874C88.2643 68.9896 90.0197 67.4853 92.3306 66.3744C94.6859 65.2636 97.5078 64.7081 100.796 64.7081C105.685 64.7081 109.529 65.9579 112.328 68.4573C115.128 70.9568 116.75 74.2431 117.195 78.3163H105.396C105.174 77.0666 104.64 76.1177 103.796 75.4697C102.996 74.7754 101.907 74.4283 100.53 74.4283C99.4631 74.4283 98.641 74.6366 98.0633 75.0531C97.53 75.4697 97.2634 76.0483 97.2634 76.7889C97.2634 77.7146 97.7744 78.432 98.7965 78.9412C99.8187 79.404 101.463 79.8901 103.729 80.3992C106.44 81.0009 108.684 81.6721 110.462 82.4127C112.284 83.1532 113.862 84.3567 115.195 86.023C116.572 87.643 117.261 89.8648 117.261 92.6882C117.261 94.9563 116.617 96.9929 115.328 98.798C114.084 100.603 112.284 102.038 109.929 103.103C107.618 104.121 104.885 104.63 101.73 104.63ZM145.749 92.5494V104.144H140.083C130.528 104.144 125.751 99.2146 125.751 89.3556V76.5112H121.151V65.1941H125.751V55.7517H138.883V65.1941H145.682V76.5112H138.883V89.5639C138.883 90.6285 139.105 91.3922 139.549 91.8551C140.038 92.3179 140.838 92.5494 141.949 92.5494H145.749Z" fill="white"/>
</svg>
