<svg width="22" height="26" viewBox="0 0 22 26" fill="none" xmlns="http://www.w3.org/2000/svg">
<g clip-path="url(#clip0_11_2)">
<path d="M2.04112 22.4815L-0.000976562 0.00128174L21.9988 0.00986184L19.9738 22.4643L10.9817 25.0041L2.04112 22.4815ZM18.3179 21.2545L20.0253 2.00047H11.0161L11.0847 23.2365L18.3179 21.2545V21.2545ZM10.1752 4.82337H7.98724L7.9615 16.3466L3.71427 15.1883L3.72285 17.8224L10.1752 19.5642V4.82337V4.82337Z" fill="#D4B830"/>
<path opacity="0.986" d="M3.72294 17.8223L3.71436 15.1882C3.71436 15.1882 6.42571 15.9518 7.96157 16.3465L7.98731 4.83194H10.1753V19.5641L3.72294 17.8223V17.8223Z" fill="#EBEBEB" fill-opacity="0.9216"/>
<path d="M11.0159 1.99188H20.0251L18.3176 21.2458L11.0159 23.2278V1.99188ZM17.8543 18.0197L18.4463 10.8209L14.0704 11.31V7.46604L18.7381 7.44888L18.9268 4.82334L11.8825 4.85766L11.9769 14.416L16.2326 13.6867L16.1726 15.8146L11.8825 16.9557L11.9254 19.5641L17.8543 18.0197Z" fill="#FDD83C"/>
</g>
<defs>
<clipPath id="clip0_11_2">
<rect width="22" height="25.0114" fill="white"/>
</clipPath>
</defs>
</svg>
